<svg xmlns="http://www.w3.org/2000/svg" viewBox="0 0 1000 260" width="1000" height="260" font-family="Segoe UI, Helvetica, Arial, sans-serif">
<defs><linearGradient id="bg" x1="0" y1="0" x2="1" y2="1"><stop offset="0" stop-color="#171412"/><stop offset="1" stop-color="#2a2019"/></linearGradient></defs>
<rect width="1000" height="260" rx="18" fill="url(#bg)"/>
<text x="48" y="62" fill="#fbbf24" font-size="15" font-family="Consolas, monospace">dnhj-06@git ~ $ cd ppe-projects</text>
<text x="48" y="118" fill="#f8fafc" font-size="42" font-weight="700">Projets PPE</text>
<text x="48" y="154" fill="#cbd5e1" font-size="19">IT Essentials · postes de travail Windows</text>
<g font-size="14" font-weight="600"><rect x="48" y="184" width="204" height="34" rx="17" fill="#f59e0b"/><text x="150.0" y="206" fill="#171412" text-anchor="middle">5 projets documentés</text><rect x="266" y="184" width="286" height="34" rx="17" fill="none" stroke="#fbbf24" stroke-width="1.5"/><text x="409.0" y="206" fill="#e7e5e4" text-anchor="middle">Geneva Institute of Technology</text></g>
<g transform="translate(700,24)"><rect x="0" y="0" width="250" height="210" rx="14" fill="#1c1917" stroke="#3a322b"/><g font-size="12" font-family="Consolas, monospace" fill="#a8a29e"><rect x="18" y="14" width="214" height="30" rx="6" fill="#231e1a" stroke="#3a322b"/><circle cx="34" cy="29" r="4" fill="#22c55e"/><text x="48" y="33">01 · mise en service</text><rect x="18" y="52" width="214" height="30" rx="6" fill="#231e1a" stroke="#3a322b"/><circle cx="34" cy="67" r="4" fill="#22c55e"/><text x="48" y="71">02 · multi-utilisateurs</text><rect x="18" y="90" width="214" height="30" rx="6" fill="#231e1a" stroke="#3a322b"/><circle cx="34" cy="105" r="4" fill="#22c55e"/><text x="48" y="109">03 · sauvegarde</text><rect x="18" y="128" width="214" height="30" rx="6" fill="#231e1a" stroke="#3a322b"/><circle cx="34" cy="143" r="4" fill="#22c55e"/><text x="48" y="147">04 · dépannage</text><rect x="18" y="166" width="214" height="30" rx="6" fill="#231e1a" stroke="#3a322b"/><circle cx="34" cy="181" r="4" fill="#22c55e"/><text x="48" y="185">05 · déploiement</text></g></g>
</svg>