<svg xmlns="http://www.w3.org/2000/svg" xml:space="preserve" viewBox="0 0 1000 280" width="1000" height="280"><defs><pattern id="g" width="24" height="24" patternUnits="userSpaceOnUse"><path d="M24 0H0V24" fill="none" stroke="#17171c" stroke-width="1"/></pattern>
<linearGradient id="fade" x1="0" y1="0" x2="1" y2="0"><stop offset="0" stop-color="#0b0b0e" stop-opacity="1"/><stop offset="0.55" stop-color="#0b0b0e" stop-opacity="0.2"/><stop offset="1" stop-color="#0b0b0e" stop-opacity="0"/></linearGradient></defs>
<rect width="1000" height="280" rx="14" fill="#0b0b0e"/><rect width="1000" height="280" rx="14" fill="url(#g)"/><rect width="1000" height="280" rx="14" fill="url(#fade)"/>
<rect x="0.5" y="0.5" width="999" height="279" rx="14" fill="none" stroke="#26262d"/>
<rect x="0" y="0" width="1000" height="2" fill="#e5243b" opacity="0.85"/><text x="40" y="56" fill="#e5243b" font-family="JetBrains Mono, Consolas, 'Courier New', monospace" font-size="13" letter-spacing="2">// PPE · IT ESSENTIALS</text><text x="40" y="104" fill="#f4f4f5" font-family="Inter, Segoe UI, Helvetica, Arial, sans-serif" font-size="42" font-weight="800">Projets PPE</text><text x="40" y="136" fill="#8b8b96" font-family="Inter, Segoe UI, Helvetica, Arial, sans-serif" font-size="17">Postes de travail Windows · 5 projets documentés</text><rect x="40" y="160" width="175.8" height="32" rx="16" fill="#131317" stroke="#26262d"/><circle cx="58" cy="176" r="4.5" fill="#22c55e"/><text x="70" y="181" fill="#f4f4f5" font-family="Inter, Segoe UI, Helvetica, Arial, sans-serif" font-size="13.5" font-weight="700">5 projets terminés</text><text x="40" y="236" fill="#8b8b96" font-family="JetBrains Mono, Consolas, 'Courier New', monospace" font-size="12">Geneva Institute of Technology · CFC informaticien</text><rect x="560" y="36" width="400" height="168" rx="9" fill="#131317" stroke="#26262d"/><text x="576" y="62" font-family="JetBrains Mono, Consolas, 'Courier New', monospace" font-size="12.5"><tspan fill="#e5243b">drilon@git-lab</tspan><tspan fill="#8b8b96">:~$ </tspan><tspan fill="#f4f4f5">ls ./projets</tspan></text><g font-family="JetBrains Mono, Consolas, 'Courier New', monospace" font-size="12"><text x="576" y="88" fill="#22c55e">●</text><text x="592" y="88" fill="#f4f4f5">01</text><text x="618" y="88" fill="#8b8b96">mise en service d'un poste</text></g><g font-family="JetBrains Mono, Consolas, 'Courier New', monospace" font-size="12"><text x="576" y="110" fill="#22c55e">●</text><text x="592" y="110" fill="#f4f4f5">02</text><text x="618" y="110" fill="#8b8b96">poste multi-utilisateurs</text></g><g font-family="JetBrains Mono, Consolas, 'Courier New', monospace" font-size="12"><text x="576" y="132" fill="#22c55e">●</text><text x="592" y="132" fill="#f4f4f5">03</text><text x="618" y="132" fill="#8b8b96">migration et sauvegarde</text></g><g font-family="JetBrains Mono, Consolas, 'Courier New', monospace" font-size="12"><text x="576" y="154" fill="#22c55e">●</text><text x="592" y="154" fill="#f4f4f5">04</text><text x="618" y="154" fill="#8b8b96">dépannage et diagnostic</text></g><g font-family="JetBrains Mono, Consolas, 'Courier New', monospace" font-size="12"><text x="576" y="176" fill="#22c55e">●</text><text x="592" y="176" fill="#f4f4f5">05</text><text x="618" y="176" fill="#8b8b96">déploiement par image système</text></g></svg>